<svg width="15" height="13" viewBox="0 0 15 13" fill="none" xmlns="http://www.w3.org/2000/svg">
<mask id="mask0_437_38" style="mask-type:alpha" maskUnits="userSpaceOnUse" x="0" y="0" width="15" height="13">
<rect width="15" height="13" fill="#D9D9D9"/>
</mask>
<g mask="url(#mask0_437_38)">
<path d="M1.25 11.9166V2.16665C1.25 1.86873 1.3724 1.61369 1.61719 1.40154C1.86198 1.18939 2.15625 1.08331 2.5 1.08331H12.5C12.8438 1.08331 13.138 1.18939 13.3828 1.40154C13.6276 1.61369 13.75 1.86873 13.75 2.16665V8.66665C13.75 8.96456 13.6276 9.2196 13.3828 9.43175C13.138 9.6439 12.8438 9.74998 12.5 9.74998H3.75L1.25 11.9166ZM3.21875 8.66665H12.5V2.16665H2.5V9.27602L3.21875 8.66665Z" fill="#787368" fill-opacity="0.92"/>
</g>
</svg>
