<svg width="30" height="30" viewBox="0 0 30 30" fill="none" xmlns="http://www.w3.org/2000/svg">
<path d="M28.2 15.3125C28.2 14.3375 28.1125 13.4 27.95 12.5H15V17.8188H22.4C22.0813 19.5375 21.1125 20.9938 19.6563 21.9688V25.4187H24.1C26.7 23.025 28.2 19.5 28.2 15.3125Z" fill="#4285F4"/>
<path d="M15 28.75C18.7125 28.75 21.825 27.5188 24.1 25.4188L19.6562 21.9688C18.425 22.7938 16.85 23.2813 15 23.2813C11.4187 23.2813 8.3875 20.8625 7.30625 17.6125H2.7125V21.175C4.975 25.6688 9.625 28.75 15 28.75Z" fill="#34A853"/>
<path d="M7.30625 17.6125C7.03125 16.7875 6.875 15.9062 6.875 15C6.875 14.0937 7.03125 13.2125 7.30625 12.3875V8.82495H2.7125C1.75 10.741 1.24915 12.8557 1.25 15C1.25 17.2187 1.78125 19.3187 2.7125 21.175L7.30625 17.6125Z" fill="#FBBC05"/>
<path d="M15 6.71875C17.0187 6.71875 18.8312 7.4125 20.2563 8.775L24.2 4.83125C21.8188 2.6125 18.7062 1.25 15 1.25C9.625 1.25 4.975 4.33125 2.7125 8.825L7.30625 12.3875C8.3875 9.1375 11.4187 6.71875 15 6.71875Z" fill="#EA4335"/>
</svg>
