<svg width="22" height="19" viewBox="0 0 22 19" fill="none" xmlns="http://www.w3.org/2000/svg">
<path d="M11 15.3056C12.375 15.3056 13.5438 14.8438 14.5063 13.9201C15.4688 12.9965 15.95 11.875 15.95 10.5556C15.95 9.23611 15.4688 8.11458 14.5063 7.19097C13.5438 6.26736 12.375 5.80556 11 5.80556C9.625 5.80556 8.45625 6.26736 7.49375 7.19097C6.53125 8.11458 6.05 9.23611 6.05 10.5556C6.05 11.875 6.53125 12.9965 7.49375 13.9201C8.45625 14.8438 9.625 15.3056 11 15.3056ZM11 13.1944C10.23 13.1944 9.57917 12.9394 9.0475 12.4292C8.51583 11.919 8.25 11.2944 8.25 10.5556C8.25 9.81667 8.51583 9.19213 9.0475 8.68194C9.57917 8.17176 10.23 7.91667 11 7.91667C11.77 7.91667 12.4208 8.17176 12.9525 8.68194C13.4842 9.19213 13.75 9.81667 13.75 10.5556C13.75 11.2944 13.4842 11.919 12.9525 12.4292C12.4208 12.9394 11.77 13.1944 11 13.1944ZM2.2 19C1.595 19 1.07708 18.7933 0.64625 18.3799C0.215417 17.9664 0 17.4694 0 16.8889V4.22222C0 3.64167 0.215417 3.14468 0.64625 2.73125C1.07708 2.31782 1.595 2.11111 2.2 2.11111H5.665L7.7 0H14.3L16.335 2.11111H19.8C20.405 2.11111 20.9229 2.31782 21.3538 2.73125C21.7846 3.14468 22 3.64167 22 4.22222V16.8889C22 17.4694 21.7846 17.9664 21.3538 18.3799C20.9229 18.7933 20.405 19 19.8 19H2.2ZM2.2 16.8889H19.8V4.22222H15.345L13.3375 2.11111H8.6625L6.655 4.22222H2.2V16.8889Z" fill="white"/>
<path d="M11 15.3056C12.375 15.3056 13.5438 14.8438 14.5063 13.9201C15.4688 12.9965 15.95 11.875 15.95 10.5556C15.95 9.23611 15.4688 8.11458 14.5063 7.19097C13.5438 6.26736 12.375 5.80556 11 5.80556C9.625 5.80556 8.45625 6.26736 7.49375 7.19097C6.53125 8.11458 6.05 9.23611 6.05 10.5556C6.05 11.875 6.53125 12.9965 7.49375 13.9201C8.45625 14.8438 9.625 15.3056 11 15.3056ZM11 13.1944C10.23 13.1944 9.57917 12.9394 9.0475 12.4292C8.51583 11.919 8.25 11.2944 8.25 10.5556C8.25 9.81667 8.51583 9.19213 9.0475 8.68194C9.57917 8.17176 10.23 7.91667 11 7.91667C11.77 7.91667 12.4208 8.17176 12.9525 8.68194C13.4842 9.19213 13.75 9.81667 13.75 10.5556C13.75 11.2944 13.4842 11.919 12.9525 12.4292C12.4208 12.9394 11.77 13.1944 11 13.1944ZM2.2 19C1.595 19 1.07708 18.7933 0.64625 18.3799C0.215417 17.9664 0 17.4694 0 16.8889V4.22222C0 3.64167 0.215417 3.14468 0.64625 2.73125C1.07708 2.31782 1.595 2.11111 2.2 2.11111H5.665L7.7 0H14.3L16.335 2.11111H19.8C20.405 2.11111 20.9229 2.31782 21.3538 2.73125C21.7846 3.14468 22 3.64167 22 4.22222V16.8889C22 17.4694 21.7846 17.9664 21.3538 18.3799C20.9229 18.7933 20.405 19 19.8 19H2.2ZM2.2 16.8889H19.8V4.22222H15.345L13.3375 2.11111H8.6625L6.655 4.22222H2.2V16.8889Z" stroke="#191815"/>
</svg>
